<svg width="159" height="56" viewBox="0 0 159 56" fill="none" xmlns="http://www.w3.org/2000/svg">
<path d="M77.2566 8.20015L74.6633 10.7925C67.665 6.35358 59.603 3.87394 51.3189 3.61244C43.0348 3.35094 34.8324 5.31717 27.5679 9.30586C20.3035 13.2945 14.2433 19.1594 10.0202 26.2882C5.79711 33.4171 3.56586 41.5484 3.55941 49.8334H0C0.000842127 40.8392 2.43655 32.013 7.04885 24.2905C11.6612 16.5679 18.2781 10.237 26.1982 5.96892C34.1182 1.70085 43.0461 -0.345253 52.0352 0.0475649C61.0242 0.440382 69.7394 3.25748 77.2566 8.20015Z" fill="#48A928"/>
<path d="M67.4278 10.896L64.7242 13.6115C58.7747 11.1725 52.3162 10.2348 45.9184 10.8811C39.5206 11.5273 33.3803 13.7378 28.0393 17.3173C22.6983 20.8969 18.3208 25.7355 15.2931 31.4062C12.2654 37.0769 10.6805 43.4054 10.6783 49.8332H7.13184C7.13745 42.6992 8.92965 35.68 12.345 29.4159C15.7604 23.1518 20.6902 17.842 26.6849 13.9708C32.6796 10.0996 39.5485 7.7902 46.6651 7.25312C53.7817 6.71604 60.9196 7.96842 67.4278 10.896Z" fill="#48A928"/>
<path d="M56.406 14.8363L53.2291 17.9796C52.1074 17.8569 50.9797 17.7963 49.8513 17.7981C41.3517 17.7981 33.2003 21.1732 27.1902 27.1809C21.1801 33.1887 17.8036 41.3369 17.8036 49.8331H14.2637C14.2688 40.4 18.0199 31.3547 24.6927 24.6845C31.3656 18.0143 40.4144 14.2647 49.8513 14.2595C52.0492 14.2513 54.2433 14.4444 56.406 14.8363Z" fill="#48A928"/>
<path d="M34.2063 49.8399V35.5819H29.0195V32.4646H42.6542V35.5625H37.435V49.8204L34.2063 49.8399Z" fill="black"/>
<path d="M44.8848 49.8399V32.4646H47.9774V38.4205H48.1006C48.3452 38.1314 48.6314 37.8803 48.9499 37.6752C49.9147 37.0821 51.0515 36.8317 52.1763 36.9646C53.3011 37.0975 54.3482 37.6059 55.148 38.4076C55.6258 38.9318 55.9954 39.5451 56.2357 40.2124C56.4761 40.8796 56.5823 41.5877 56.5485 42.2961V49.8399H53.4559V42.5165C53.4739 42.1465 53.4166 41.7768 53.2874 41.4297C53.1582 41.0826 52.9598 40.7653 52.7043 40.4971C52.4487 40.2289 52.1414 40.0154 51.8008 39.8695C51.4603 39.7236 51.0936 39.6484 50.7231 39.6484C50.3526 39.6484 49.9859 39.7236 49.6454 39.8695C49.3048 40.0154 48.9975 40.2289 48.7419 40.4971C48.4864 40.7653 48.288 41.0826 48.1588 41.4297C48.0296 41.7768 47.9723 42.1465 47.9903 42.5165V49.8399H44.8848Z" fill="black"/>
<path d="M59.6475 49.8397V37.176H62.2408L62.4872 38.2972H62.6104C62.769 38.0901 62.9543 37.9049 63.1615 37.7463C63.6462 37.3777 64.2381 37.1774 64.8472 37.176H67.3303V40.1832H65.1C63.5267 40.1832 62.7401 40.9695 62.7401 42.5422V49.8397H59.6475Z" fill="black"/>
<path d="M69.1064 35.1929V32.2117H72.4584V35.1929H69.1064ZM69.2296 49.8397V37.176H72.3352V49.8397H69.2296Z" fill="black"/>
<path d="M78.2941 49.8397L73.9502 37.176H77.1919L80.1548 46.016H80.6541L83.6364 37.2019H86.8782L82.5148 49.8397H78.2941Z" fill="black"/>
<path d="M96.6748 46.1131H99.9165C99.8063 46.4868 99.6425 46.8426 99.4303 47.1694C99.1338 47.6335 98.7929 48.0676 98.4124 48.4656C97.9023 48.9793 97.2876 49.3771 96.61 49.6322C95.8039 49.9438 94.9456 50.0978 94.0814 50.0858C93.2232 50.1132 92.3686 49.9632 91.571 49.6454C90.7733 49.3276 90.0499 48.8488 89.4458 48.2388C88.8366 47.6149 88.3605 46.8739 88.0462 46.0607C87.732 45.2475 87.5861 44.379 87.6174 43.5077C87.5883 42.6368 87.7353 41.7689 88.0494 40.956C88.3635 40.1431 88.8385 39.4019 89.4458 38.7767C90.0495 38.1707 90.7713 37.6952 91.5665 37.3797C92.3617 37.0642 93.2133 36.9154 94.0685 36.9426C94.8897 36.927 95.7052 37.0814 96.4639 37.3959C97.2226 37.7104 97.908 38.1783 98.4772 38.7702C99.0703 39.364 99.5356 40.0727 99.8444 40.8529C100.153 41.6331 100.299 42.4682 100.273 43.3068C100.273 43.4559 100.273 43.754 100.202 44.2012L100.15 44.5512H90.71C90.8241 45.3652 91.2212 46.1132 91.8317 46.6639C92.4466 47.2099 93.2462 47.5018 94.0685 47.4805C94.6604 47.5001 95.2454 47.3494 95.7542 47.0463C96.1484 46.8354 96.4694 46.51 96.6748 46.1131ZM90.71 42.393H97.1935C97.0767 41.6143 96.7158 40.8927 96.1626 40.3321C95.8868 40.0629 95.5586 39.8533 95.1983 39.7162C94.8381 39.579 94.4535 39.5174 94.0685 39.535C93.2605 39.5058 92.472 39.7864 91.8641 40.3192C91.2726 40.8734 90.8691 41.5984 90.71 42.393Z" fill="black"/>
<path d="M101.395 49.8399L107.975 32.4646H110.218L116.793 49.8399H115.302L113.512 45.1218H104.669L102.879 49.8399H101.395ZM105.246 43.6312H112.942L109.343 34.0719H108.844L105.246 43.6312Z" fill="black"/>
<path d="M118.647 50.8313H120.138C120.169 51.2154 120.283 51.5882 120.472 51.9239C120.661 52.2597 120.921 52.5502 121.234 52.7755C122.041 53.3326 123.011 53.6041 123.989 53.5468C125.052 53.6034 126.094 53.2429 126.894 52.5422C127.254 52.1897 127.536 51.7649 127.72 51.2957C127.905 50.8266 127.988 50.3237 127.964 49.8202V47.1112H127.841C127.379 47.8073 126.75 48.3767 126.012 48.7673C125.273 49.1579 124.449 49.3573 123.613 49.3471C122.867 49.3593 122.126 49.2125 121.441 48.9163C120.756 48.6202 120.142 48.1816 119.639 47.6297C118.545 46.4437 117.965 44.8735 118.025 43.2616C117.965 41.6465 118.548 40.0736 119.646 38.887C120.147 38.3341 120.761 37.8948 121.447 37.5986C122.132 37.3024 122.873 37.1561 123.62 37.1695C124.455 37.1594 125.28 37.3588 126.018 37.7494C126.757 38.14 127.386 38.7093 127.847 39.4055H127.97L128.217 37.4223H129.461V49.8397C129.49 50.5365 129.374 51.2316 129.119 51.881C128.865 52.5303 128.478 53.1197 127.983 53.6116C127.452 54.1126 126.825 54.5016 126.14 54.7555C125.455 55.0093 124.726 55.1228 123.996 55.0892C122.632 55.1519 121.292 54.7139 120.229 53.8578C119.774 53.4864 119.4 53.0267 119.128 52.5065C118.856 51.9863 118.692 51.4164 118.647 50.8313ZM120.722 46.5604C121.111 46.9696 121.579 47.2955 122.098 47.5182C122.616 47.7409 123.175 47.8557 123.74 47.8557C124.304 47.8557 124.863 47.7409 125.382 47.5182C125.901 47.2955 126.369 46.9696 126.758 46.5604C127.536 45.6361 127.963 44.4666 127.963 43.2583C127.963 42.05 127.536 40.8806 126.758 39.9563C126.368 39.5487 125.9 39.2243 125.381 39.0027C124.862 38.7811 124.304 38.6668 123.74 38.6668C123.176 38.6668 122.617 38.7811 122.099 39.0027C121.58 39.2243 121.112 39.5487 120.722 39.9563C119.943 40.8806 119.516 42.05 119.516 43.2583C119.516 44.4666 119.943 45.6361 120.722 46.5604Z" fill="black"/>
<path d="M133.429 49.8395V37.4286H134.674L134.797 38.6664H134.92C135.192 38.2636 135.564 37.938 135.999 37.7211C136.434 37.5042 136.918 37.4035 137.403 37.4286H139.64V38.9192H137.533C137.177 38.8972 136.821 38.9485 136.487 39.0701C136.152 39.1916 135.846 39.3807 135.588 39.6256C135.344 39.9 135.157 40.22 135.038 40.5671C134.919 40.9142 134.87 41.2815 134.894 41.6476V49.8395H133.429Z" fill="black"/>
<path d="M141.877 34.5709V32.834H143.615V34.5709H141.877ZM141.987 49.8398V37.4289H143.478V49.8398H141.987Z" fill="black"/>
<path d="M156.406 45.7436H158.021C157.773 47.0078 157.084 48.1427 156.076 48.9451C155.063 49.7234 153.812 50.1266 152.536 50.0858C151.748 50.1132 150.965 49.9698 150.238 49.6655C149.512 49.3611 148.86 48.9031 148.328 48.323C147.199 47.0281 146.616 45.3464 146.7 43.6308C146.618 41.9157 147.201 40.235 148.328 38.9387C148.861 38.3595 149.513 37.9022 150.239 37.598C150.965 37.2938 151.749 37.1498 152.536 37.1759C153.806 37.1436 155.049 37.5435 156.063 38.31C157.056 39.0781 157.745 40.1734 158.008 41.4014H156.393C156.17 40.674 155.743 40.0261 155.161 39.5349C154.437 38.9297 153.511 38.6196 152.568 38.6665C151.981 38.6486 151.397 38.7594 150.857 38.9912C150.317 39.223 149.834 39.57 149.443 40.008C148.59 41.0164 148.154 42.3121 148.224 43.6308C148.152 44.9517 148.588 46.2501 149.443 47.2601C149.832 47.6976 150.313 48.0449 150.85 48.2777C151.388 48.5105 151.969 48.6233 152.555 48.6081C153.506 48.65 154.436 48.3199 155.148 47.6879C155.74 47.1692 156.176 46.496 156.406 45.7436Z" fill="black"/>
</svg>
